# xmcd CD database file
#
# Track frame offsets:
#	150
#	20095
#	38787
#	61615
#	81462
#	105075
#	126150
#	144210
#	162318
#	183893
#	206750
#
# Disc length: 3069 seconds
#
# Revision: 0
# Processed by: cddbd v1.5PL3 Copyright (c) Steve Scherf et al.
# Submitted via: CDex 1.51
#
DISCID=8a0bfb0b
DTITLE=2 PAC - GREATIST HITS
DYEAR=1998
DGENRE=Hip-Hop
TTITLE0=Keep Ya Head Up
TTITLE1=2 of Amerikaz Most Wanted - Snoop Dogg
TTITLE2=Temptations
TTITLE3=God Bless the Dead
TTITLE4=Hail Mary
TTITLE5=Me Against the World - Dramacydal
TTITLE6=How Do U Want It - K-Ci and JoJo
TTITLE7=So Many Tears
TTITLE8=Unconditional Love
TTITLE9=Trapped
TTITLE10=Life Goes On
EXTD=YEAR: 1998
EXTT0=
EXTT1=
EXTT2=
EXTT3=
EXTT4=
EXTT5=
EXTT6=
EXTT7=
EXTT8=
EXTT9=
EXTT10=
PLAYORDER=
